<svg xmlns="http://www.w3.org/2000/svg" xmlns:xlink="http://www.w3.org/1999/xlink" width="500" zoomAndPan="magnify" viewBox="0 0 375 374.999991" height="500" preserveAspectRatio="xMidYMid meet" version="1.0"><defs><clipPath id="75153321cb"><path d="M 57 11.160156 L 317.761719 11.160156 L 317.761719 364 L 57 364 Z M 57 11.160156 " clip-rule="nonzero"/></clipPath><clipPath id="0166c79697"><path d="M 317.761719 12.660156 L 317.761719 292.589844 C 317.761719 293.511719 317.253906 294.359375 316.441406 294.796875 L 188.824219 363.128906 C 187.996094 363.570312 187.003906 363.570312 186.175781 363.128906 L 58.558594 294.796875 C 57.746094 294.359375 57.238281 293.511719 57.238281 292.589844 L 57.238281 12.660156 C 57.238281 11.832031 57.910156 11.160156 58.738281 11.160156 L 316.261719 11.160156 C 317.089844 11.160156 317.761719 11.832031 317.761719 12.660156 Z M 317.761719 12.660156 " clip-rule="nonzero"/></clipPath><clipPath id="fa2a6d42f6"><path d="M 0.121094 0.160156 L 260.761719 0.160156 L 260.761719 352.601562 L 0.121094 352.601562 Z M 0.121094 0.160156 " clip-rule="nonzero"/></clipPath><clipPath id="5655bbc77f"><path d="M 260.761719 1.660156 L 260.761719 281.589844 C 260.761719 282.511719 260.253906 283.359375 259.441406 283.796875 L 131.824219 352.128906 C 130.996094 352.570312 130.003906 352.570312 129.175781 352.128906 L 1.558594 283.796875 C 0.746094 283.359375 0.238281 282.511719 0.238281 281.589844 L 0.238281 1.660156 C 0.238281 0.832031 0.910156 0.160156 1.738281 0.160156 L 259.261719 0.160156 C 260.089844 0.160156 260.761719 0.832031 260.761719 1.660156 Z M 260.761719 1.660156 " clip-rule="nonzero"/></clipPath><clipPath id="70ba89d006"><rect x="0" width="261" y="0" height="353"/></clipPath><clipPath id="b7fd958564"><path d="M 71.003906 24.066406 L 303.996094 24.066406 L 303.996094 348.988281 L 71.003906 348.988281 Z M 71.003906 24.066406 " clip-rule="nonzero"/></clipPath><clipPath id="b0dc384902"><path d="M 303.996094 24.816406 L 303.996094 285.511719 C 303.996094 285.972656 303.742188 286.398438 303.335938 286.617188 L 188.160156 348.285156 C 187.75 348.507812 187.25 348.507812 186.839844 348.285156 L 71.664062 286.617188 C 71.257812 286.398438 71.003906 285.972656 71.003906 285.511719 L 71.003906 24.816406 C 71.003906 24.402344 71.335938 24.066406 71.753906 24.066406 L 303.246094 24.066406 C 303.660156 24.066406 303.996094 24.402344 303.996094 24.816406 Z M 303.996094 24.816406 " clip-rule="nonzero"/></clipPath><clipPath id="eec67e467b"><path d="M 0.00390625 0.0664062 L 232.996094 0.0664062 L 232.996094 324.71875 L 0.00390625 324.71875 Z M 0.00390625 0.0664062 " clip-rule="nonzero"/></clipPath><clipPath id="c0f18b9c9f"><path d="M 232.996094 0.816406 L 232.996094 261.511719 C 232.996094 261.972656 232.742188 262.398438 232.335938 262.617188 L 117.160156 324.285156 C 116.75 324.507812 116.25 324.507812 115.839844 324.285156 L 0.664062 262.617188 C 0.257812 262.398438 0.00390625 261.972656 0.00390625 261.511719 L 0.00390625 0.816406 C 0.00390625 0.402344 0.335938 0.0664062 0.753906 0.0664062 L 232.246094 0.0664062 C 232.660156 0.0664062 232.996094 0.402344 232.996094 0.816406 Z M 232.996094 0.816406 " clip-rule="nonzero"/></clipPath><clipPath id="e053c26fdc"><rect x="0" width="233" y="0" height="325"/></clipPath><clipPath id="fe282c45f9"><path d="M 187.5 17.613281 L 309.277344 17.613281 L 309.277344 213.597656 L 187.5 213.597656 Z M 187.5 17.613281 " clip-rule="nonzero"/></clipPath><clipPath id="07736c0269"><path d="M 309.277344 17.613281 L 309.277344 180.550781 L 248.386719 213.15625 L 187.5 180.550781 L 187.5 17.613281 Z M 309.277344 17.613281 " clip-rule="nonzero"/></clipPath><clipPath id="bdee013293"><path d="M 0.5 0.613281 L 122.277344 0.613281 L 122.277344 196.359375 L 0.5 196.359375 Z M 0.5 0.613281 " clip-rule="nonzero"/></clipPath><clipPath id="2e54d0adf4"><path d="M 122.277344 0.613281 L 122.277344 163.550781 L 61.386719 196.15625 L 0.5 163.550781 L 0.5 0.613281 Z M 122.277344 0.613281 " clip-rule="nonzero"/></clipPath><clipPath id="e26c0bd3ac"><rect x="0" width="123" y="0" height="197"/></clipPath><clipPath id="bfe56ee6d6"><path d="M 180.617188 17.613281 L 194.382812 17.613281 L 194.382812 355.09375 L 180.617188 355.09375 Z M 180.617188 17.613281 " clip-rule="nonzero"/></clipPath><clipPath id="03b34a7f0f"><path d="M 0.617188 0.613281 L 14.382812 0.613281 L 14.382812 338.09375 L 0.617188 338.09375 Z M 0.617188 0.613281 " clip-rule="nonzero"/></clipPath><clipPath id="9bb372dfb6"><rect x="0" width="15" y="0" height="339"/></clipPath><clipPath id="1c720121e8"><path d="M 65.71875 126.558594 L 187.492188 126.558594 L 187.492188 293.050781 L 65.71875 293.050781 Z M 65.71875 126.558594 " clip-rule="nonzero"/></clipPath><clipPath id="49c8157647"><path d="M 65.71875 293.050781 L 65.71875 159.464844 L 126.605469 126.863281 L 187.492188 159.464844 L 187.492188 293.050781 Z M 65.71875 293.050781 " clip-rule="nonzero"/></clipPath><clipPath id="fe89c3786b"><path d="M 0.71875 1 L 122.492188 1 L 122.492188 167.050781 L 0.71875 167.050781 Z M 0.71875 1 " clip-rule="nonzero"/></clipPath><clipPath id="10612f059d"><path d="M 0.71875 167.050781 L 0.71875 33.464844 L 61.605469 0.863281 L 122.492188 33.464844 L 122.492188 167.050781 Z M 0.71875 167.050781 " clip-rule="nonzero"/></clipPath><clipPath id="dd3e2241c6"><rect x="0" width="123" y="0" height="168"/></clipPath><clipPath id="bcb63f85fd"><path d="M 71 233.320312 L 187.496094 233.320312 L 187.496094 355.28125 L 71 355.28125 Z M 71 233.320312 " clip-rule="nonzero"/></clipPath><clipPath id="56dde1c791"><path d="M 71 294.207031 L 187.496094 355.097656 L 187.496094 233.320312 Z M 71 294.207031 " clip-rule="nonzero"/></clipPath><clipPath id="0349ad9c36"><path d="M 0 0.320312 L 116.496094 0.320312 L 116.496094 122.199219 L 0 122.199219 Z M 0 0.320312 " clip-rule="nonzero"/></clipPath><clipPath id="d111a7dc3d"><path d="M 0 61.207031 L 116.496094 122.097656 L 116.496094 0.320312 Z M 0 61.207031 " clip-rule="nonzero"/></clipPath><clipPath id="1462f39ded"><rect x="0" width="117" y="0" height="123"/></clipPath><clipPath id="e172bf0f25"><path d="M 122.566406 234.898438 L 130.648438 234.898438 L 130.648438 318.230469 L 122.566406 318.230469 Z M 122.566406 234.898438 " clip-rule="nonzero"/></clipPath><clipPath id="79cb96234c"><path d="M 130.648438 239.238281 L 130.648438 318.222656 L 122.566406 313.882812 L 122.566406 234.898438 Z M 130.648438 239.238281 " clip-rule="nonzero"/></clipPath><clipPath id="27d8cf72f5"><path d="M 0.566406 0.898438 L 8.648438 0.898438 L 8.648438 84.230469 L 0.566406 84.230469 Z M 0.566406 0.898438 " clip-rule="nonzero"/></clipPath><clipPath id="536c1da7de"><path d="M 8.648438 5.238281 L 8.648438 84.222656 L 0.566406 79.882812 L 0.566406 0.898438 Z M 8.648438 5.238281 " clip-rule="nonzero"/></clipPath><clipPath id="a5cbf2e17d"><rect x="0" width="9" y="0" height="85"/></clipPath><clipPath id="5ff47975fe"><path d="M 122.566406 195.722656 L 130.648438 195.722656 L 130.648438 279.046875 L 122.566406 279.046875 Z M 122.566406 195.722656 " clip-rule="nonzero"/></clipPath><clipPath id="e549280d85"><path d="M 0.566406 0.722656 L 8.648438 0.722656 L 8.648438 84.046875 L 0.566406 84.046875 Z M 0.566406 0.722656 " clip-rule="nonzero"/></clipPath><clipPath id="21a6550b0c"><rect x="0" width="9" y="0" height="85"/></clipPath><clipPath id="ce100f0459"><path d="M 122 169 L 156 169 L 156 202 L 122 202 Z M 122 169 " clip-rule="nonzero"/></clipPath><clipPath id="c070c9af6d"><path d="M 155.773438 175.785156 L 128.074219 201.566406 L 122.570312 195.652344 L 150.265625 169.871094 Z M 155.773438 175.785156 " clip-rule="nonzero"/></clipPath><clipPath id="535dd6785d"><path d="M 0.398438 0.679688 L 34 0.679688 L 34 32.601562 L 0.398438 32.601562 Z M 0.398438 0.679688 " clip-rule="nonzero"/></clipPath><clipPath id="ce7aa4d54b"><path d="M 33.773438 6.785156 L 6.074219 32.566406 L 0.570312 26.652344 L 28.265625 0.871094 Z M 33.773438 6.785156 " clip-rule="nonzero"/></clipPath><clipPath id="8211083595"><rect x="0" width="34" y="0" height="33"/></clipPath><clipPath id="0cf77f5b49"><path d="M 147.6875 175.816406 L 155.769531 175.816406 L 155.769531 203.105469 L 147.6875 203.105469 Z M 147.6875 175.816406 " clip-rule="nonzero"/></clipPath><clipPath id="10b8913a85"><path d="M 0.6875 0.816406 L 8.769531 0.816406 L 8.769531 28.105469 L 0.6875 28.105469 Z M 0.6875 0.816406 " clip-rule="nonzero"/></clipPath><clipPath id="a5fbb67814"><rect x="0" width="9" y="0" height="29"/></clipPath><clipPath id="2357442b02"><path d="M 122 197 L 156 197 L 156 229 L 122 229 Z M 122 197 " clip-rule="nonzero"/></clipPath><clipPath id="799404e533"><path d="M 155.773438 203.214844 L 128.074219 228.996094 L 122.570312 223.082031 L 150.265625 197.300781 Z M 155.773438 203.214844 " clip-rule="nonzero"/></clipPath><clipPath id="0e68d64172"><path d="M 0.398438 0.28125 L 34 0.28125 L 34 32 L 0.398438 32 Z M 0.398438 0.28125 " clip-rule="nonzero"/></clipPath><clipPath id="107d5813a2"><path d="M 33.773438 6.214844 L 6.074219 31.996094 L 0.570312 26.082031 L 28.265625 0.300781 Z M 33.773438 6.214844 " clip-rule="nonzero"/></clipPath><clipPath id="767b8c157e"><rect x="0" width="34" y="0" height="32"/></clipPath><clipPath id="3205ccfbcb"><path d="M 99.105469 202.949219 L 107.1875 202.949219 L 107.1875 230.234375 L 99.105469 230.234375 Z M 99.105469 202.949219 " clip-rule="nonzero"/></clipPath><clipPath id="7eef79e798"><path d="M 0.105469 0.949219 L 8.1875 0.949219 L 8.1875 28.234375 L 0.105469 28.234375 Z M 0.105469 0.949219 " clip-rule="nonzero"/></clipPath><clipPath id="b1c540f9ac"><rect x="0" width="9" y="0" height="29"/></clipPath><clipPath id="7b67f95bb4"><path d="M 99 224 L 131 224 L 131 259 L 99 259 Z M 99 224 " clip-rule="nonzero"/></clipPath><clipPath id="5429753b3a"><path d="M 105.054688 224.734375 L 130.648438 252.605469 L 124.699219 258.074219 L 99.105469 230.199219 Z M 105.054688 224.734375 " clip-rule="nonzero"/></clipPath><clipPath id="b233ee6cbc"><path d="M 0 0.640625 L 31.800781 0.640625 L 31.800781 34.238281 L 0 34.238281 Z M 0 0.640625 " clip-rule="nonzero"/></clipPath><clipPath id="db7af2ed17"><path d="M 6.054688 0.734375 L 31.648438 28.605469 L 25.699219 34.074219 L 0.105469 6.199219 Z M 6.054688 0.734375 " clip-rule="nonzero"/></clipPath><clipPath id="99b6769ec4"><rect x="0" width="32" y="0" height="35"/></clipPath><clipPath id="53a09d6edc"><path d="M 99 197 L 131 197 L 131 231 L 99 231 Z M 99 197 " clip-rule="nonzero"/></clipPath><clipPath id="4f470efc87"><path d="M 105.054688 197.304688 L 130.648438 225.175781 L 124.699219 230.640625 L 99.105469 202.769531 Z M 105.054688 197.304688 " clip-rule="nonzero"/></clipPath><clipPath id="c782bb2e45"><path d="M 0 0.28125 L 31.800781 0.28125 L 31.800781 33.878906 L 0 33.878906 Z M 0 0.28125 " clip-rule="nonzero"/></clipPath><clipPath id="c15ccc3754"><path d="M 6.054688 0.304688 L 31.648438 28.175781 L 25.699219 33.640625 L 0.105469 5.769531 Z M 6.054688 0.304688 " clip-rule="nonzero"/></clipPath><clipPath id="d32a932a7d"><rect x="0" width="32" y="0" height="34"/></clipPath><clipPath id="a8c12dde08"><path d="M 124 179 L 155 179 L 155 220 L 124 220 Z M 124 179 " clip-rule="nonzero"/></clipPath><clipPath id="6cacaf13fe"><path d="M 159.851562 189.652344 L 128.238281 219.082031 L 118.453125 208.570312 L 150.066406 179.144531 Z M 159.851562 189.652344 " clip-rule="nonzero"/></clipPath><clipPath id="389a0ed320"><path d="M 154.027344 195.078125 L 128.261719 219.058594 L 124.304688 203.125 L 150.066406 179.144531 Z M 154.027344 195.078125 " clip-rule="nonzero"/></clipPath><clipPath id="a4b96ccdb8"><path d="M 0.078125 0.0390625 L 30.078125 0.0390625 L 30.078125 40.121094 L 0.078125 40.121094 Z M 0.078125 0.0390625 " clip-rule="nonzero"/></clipPath><clipPath id="2f7e4fd78e"><path d="M 35.851562 10.652344 L 4.238281 40.082031 L -5.546875 29.570312 L 26.066406 0.144531 Z M 35.851562 10.652344 " clip-rule="nonzero"/></clipPath><clipPath id="fd92c335f2"><path d="M 30.027344 16.078125 L 4.261719 40.058594 L 0.304688 24.125 L 26.066406 0.144531 Z M 30.027344 16.078125 " clip-rule="nonzero"/></clipPath><clipPath id="5aa962ce4c"><rect x="0" width="31" y="0" height="41"/></clipPath><clipPath id="8593ab7b03"><path d="M 101 209 L 129 209 L 129 245 L 101 245 Z M 101 209 " clip-rule="nonzero"/></clipPath><clipPath id="b1221b503b"><path d="M 132.203125 218.601562 L 123.390625 244.949219 L 97.550781 236.304688 L 106.363281 209.957031 Z M 132.203125 218.601562 " clip-rule="nonzero"/></clipPath><clipPath id="de90e0c0af"><path d="M 128.609375 229.351562 L 123.390625 244.945312 L 101.144531 225.550781 L 106.363281 209.957031 Z M 128.609375 229.351562 " clip-rule="nonzero"/></clipPath><clipPath id="844389e7e8"><path d="M 0.0390625 0.761719 L 27.640625 0.761719 L 27.640625 36 L 0.0390625 36 Z M 0.0390625 0.761719 " clip-rule="nonzero"/></clipPath><clipPath id="d5218de6c4"><path d="M 31.203125 9.601562 L 22.390625 35.949219 L -3.449219 27.304688 L 5.363281 0.957031 Z M 31.203125 9.601562 " clip-rule="nonzero"/></clipPath><clipPath id="e0a72e16d3"><path d="M 27.609375 20.351562 L 22.390625 35.945312 L 0.144531 16.550781 L 5.363281 0.957031 Z M 27.609375 20.351562 " clip-rule="nonzero"/></clipPath><clipPath id="53d1ceaf29"><rect x="0" width="28" y="0" height="36"/></clipPath><clipPath id="65e71fc49f"><path d="M 275.382812 65.539062 L 296.214844 65.539062 L 296.214844 86.371094 L 275.382812 86.371094 Z M 275.382812 65.539062 " clip-rule="nonzero"/></clipPath><clipPath id="c269bef0f7"><path d="M 296.214844 75.957031 C 296.214844 70.203125 291.550781 65.539062 285.800781 65.539062 C 280.046875 65.539062 275.382812 70.203125 275.382812 75.957031 C 275.382812 81.707031 280.046875 86.371094 285.800781 86.371094 C 291.550781 86.371094 296.214844 81.707031 296.214844 75.957031 Z M 296.214844 75.957031 " clip-rule="nonzero"/></clipPath><clipPath id="283fee90f9"><path d="M 0.382812 0.539062 L 21.214844 0.539062 L 21.214844 21.371094 L 0.382812 21.371094 Z M 0.382812 0.539062 " clip-rule="nonzero"/></clipPath><clipPath id="a61bdddafa"><path d="M 21.214844 10.957031 C 21.214844 5.203125 16.550781 0.539062 10.800781 0.539062 C 5.046875 0.539062 0.382812 5.203125 0.382812 10.957031 C 0.382812 16.707031 5.046875 21.371094 10.800781 21.371094 C 16.550781 21.371094 21.214844 16.707031 21.214844 10.957031 Z M 21.214844 10.957031 " clip-rule="nonzero"/></clipPath><clipPath id="bc9facdd2f"><rect x="0" width="22" y="0" height="22"/></clipPath><clipPath id="3b5cb07061"><path d="M 203 70 L 293 70 L 293 120 L 203 120 Z M 203 70 " clip-rule="nonzero"/></clipPath><clipPath id="6279d62448"><path d="M 292.878906 113.589844 L 289.929688 119.414062 L 203.96875 75.929688 L 206.917969 70.101562 Z M 292.878906 113.589844 " clip-rule="nonzero"/></clipPath><clipPath id="3f7ab0c872"><path d="M 0.761719 0.078125 L 90 0.078125 L 90 49.519531 L 0.761719 49.519531 Z M 0.761719 0.078125 " clip-rule="nonzero"/></clipPath><clipPath id="ef7ff4696d"><path d="M 89.878906 43.589844 L 86.929688 49.414062 L 0.96875 5.929688 L 3.917969 0.101562 Z M 89.878906 43.589844 " clip-rule="nonzero"/></clipPath><clipPath id="3fd59301cc"><rect x="0" width="90" y="0" height="50"/></clipPath><clipPath id="5f355abd58"><path d="M 204 69 L 293 69 L 293 120 L 204 120 Z M 204 69 " clip-rule="nonzero"/></clipPath><clipPath id="981d614ce8"><path d="M 207.285156 119.753906 L 204.289062 113.953125 L 289.890625 69.757812 L 292.886719 75.5625 Z M 207.285156 119.753906 " clip-rule="nonzero"/></clipPath><clipPath id="b292ff6f34"><path d="M 0.238281 0.601562 L 89 0.601562 L 89 50.761719 L 0.238281 50.761719 Z M 0.238281 0.601562 " clip-rule="nonzero"/></clipPath><clipPath id="a51e884bbb"><path d="M 3.285156 50.753906 L 0.289062 44.953125 L 85.890625 0.757812 L 88.886719 6.5625 Z M 3.285156 50.753906 " clip-rule="nonzero"/></clipPath><clipPath id="9743bbe7d1"><rect x="0" width="89" y="0" height="51"/></clipPath><clipPath id="1281e705d5"><path d="M 242 108 L 293 108 L 293 139 L 242 139 Z M 242 108 " clip-rule="nonzero"/></clipPath><clipPath id="9430e7550f"><path d="M 245.511719 138.617188 L 242.515625 132.8125 L 289.574219 108.519531 L 292.570312 114.320312 Z M 245.511719 138.617188 " clip-rule="nonzero"/></clipPath><clipPath id="5f19d1aef6"><path d="M 0.398438 0.480469 L 50.800781 0.480469 L 50.800781 30.71875 L 0.398438 30.71875 Z M 0.398438 0.480469 " clip-rule="nonzero"/></clipPath><clipPath id="205857a1ff"><path d="M 3.511719 30.617188 L 0.515625 24.8125 L 47.574219 0.519531 L 50.570312 6.320312 Z M 3.511719 30.617188 " clip-rule="nonzero"/></clipPath><clipPath id="d59c9aadd5"><rect x="0" width="51" y="0" height="31"/></clipPath><clipPath id="906dda26e7"><path d="M 204 50 L 255 50 L 255 81 L 204 81 Z M 204 50 " clip-rule="nonzero"/></clipPath><clipPath id="49d5625e3f"><path d="M 207.28125 81 L 204.285156 75.199219 L 251.34375 50.90625 L 254.339844 56.707031 Z M 207.28125 81 " clip-rule="nonzero"/></clipPath><clipPath id="620bb4a3e6"><path d="M 0.238281 0.878906 L 50.398438 0.878906 L 50.398438 31 L 0.238281 31 Z M 0.238281 0.878906 " clip-rule="nonzero"/></clipPath><clipPath id="198d6c76b6"><path d="M 3.28125 31 L 0.285156 25.199219 L 47.34375 0.90625 L 50.339844 6.707031 Z M 3.28125 31 " clip-rule="nonzero"/></clipPath><clipPath id="f11a06ebd4"><rect x="0" width="51" y="0" height="31"/></clipPath><clipPath id="91de85a808"><path d="M 242 51 L 293 51 L 293 82 L 242 82 Z M 242 51 " clip-rule="nonzero"/></clipPath><clipPath id="4b3b645052"><path d="M 292.570312 75.195312 L 289.585938 81.003906 L 242.476562 56.8125 L 245.457031 51.003906 Z M 292.570312 75.195312 " clip-rule="nonzero"/></clipPath><clipPath id="fc07992424"><path d="M 0.398438 0 L 50.800781 0 L 50.800781 30.121094 L 0.398438 30.121094 Z M 0.398438 0 " clip-rule="nonzero"/></clipPath><clipPath id="9276827e52"><path d="M 50.570312 24.195312 L 47.585938 30.003906 L 0.476562 5.8125 L 3.457031 0.00390625 Z M 50.570312 24.195312 " clip-rule="nonzero"/></clipPath><clipPath id="f8776a64fb"><rect x="0" width="51" y="0" height="31"/></clipPath><clipPath id="1ee21fabee"><path d="M 204 108 L 255 108 L 255 139 L 204 139 Z M 204 108 " clip-rule="nonzero"/></clipPath><clipPath id="c3d3d833cc"><path d="M 254.902344 132.808594 L 251.917969 138.617188 L 204.808594 114.429688 L 207.789062 108.621094 Z M 254.902344 132.808594 " clip-rule="nonzero"/></clipPath><clipPath id="ec33b8ac36"><path d="M 0.71875 0.480469 L 51 0.480469 L 51 30.71875 L 0.71875 30.71875 Z M 0.71875 0.480469 " clip-rule="nonzero"/></clipPath><clipPath id="9512426726"><path d="M 50.902344 24.808594 L 47.917969 30.617188 L 0.808594 6.429688 L 3.789062 0.621094 Z M 50.902344 24.808594 " clip-rule="nonzero"/></clipPath><clipPath id="f602e87c5a"><rect x="0" width="51" y="0" height="31"/></clipPath><clipPath id="1b6b203858"><path d="M 251 62 L 286 62 L 286 111 L 251 111 Z M 251 62 " clip-rule="nonzero"/></clipPath><clipPath id="00bf713057"><path d="M 285.652344 107.023438 L 280.191406 110.605469 L 251.136719 66.328125 L 256.597656 62.746094 Z M 285.652344 107.023438 " clip-rule="nonzero"/></clipPath><clipPath id="7cf4340904"><path d="M 0.0390625 0.640625 L 34.839844 0.640625 L 34.839844 48.640625 L 0.0390625 48.640625 Z M 0.0390625 0.640625 " clip-rule="nonzero"/></clipPath><clipPath id="4f7aeae30d"><path d="M 34.652344 45.023438 L 29.191406 48.605469 L 0.136719 4.328125 L 5.597656 0.746094 Z M 34.652344 45.023438 " clip-rule="nonzero"/></clipPath><clipPath id="8de18b6cf5"><rect x="0" width="35" y="0" height="49"/></clipPath><clipPath id="455bb25361"><path d="M 213 81 L 248 81 L 248 130 L 213 130 Z M 213 81 " clip-rule="nonzero"/></clipPath><clipPath id="7886302f54"><path d="M 247.917969 126.207031 L 242.460938 129.789062 L 213.402344 85.515625 L 218.863281 81.933594 Z M 247.917969 126.207031 " clip-rule="nonzero"/></clipPath><clipPath id="7d18543757"><path d="M 0.359375 0.839844 L 34.921875 0.839844 L 34.921875 48.839844 L 0.359375 48.839844 Z M 0.359375 0.839844 " clip-rule="nonzero"/></clipPath><clipPath id="f664d62e68"><path d="M 34.917969 45.207031 L 29.460938 48.789062 L 0.402344 4.515625 L 5.863281 0.933594 Z M 34.917969 45.207031 " clip-rule="nonzero"/></clipPath><clipPath id="b0abf37c00"><rect x="0" width="35" y="0" height="49"/></clipPath><clipPath id="e519a492d2"><path d="M 212 60 L 247 60 L 247 109 L 212 109 Z M 212 60 " clip-rule="nonzero"/></clipPath><clipPath id="06955d8b9a"><path d="M 241.421875 60.773438 L 246.914062 64.300781 L 218.289062 108.855469 L 212.796875 105.328125 Z M 241.421875 60.773438 " clip-rule="nonzero"/></clipPath><clipPath id="60ae8ba62e"><path d="M 0.640625 0.71875 L 34.960938 0.71875 L 34.960938 48.960938 L 0.640625 48.960938 Z M 0.640625 0.71875 " clip-rule="nonzero"/></clipPath><clipPath id="b905f84db4"><path d="M 29.421875 0.773438 L 34.914062 4.300781 L 6.289062 48.855469 L 0.796875 45.328125 Z M 29.421875 0.773438 " clip-rule="nonzero"/></clipPath><clipPath id="5b0a7813bf"><rect x="0" width="35" y="0" height="49"/></clipPath><clipPath id="4df48cdf7a"><path d="M 248 82 L 283 82 L 283 131 L 248 131 Z M 248 82 " clip-rule="nonzero"/></clipPath><clipPath id="a6a5224f1a"><path d="M 277.4375 82.433594 L 282.929688 85.964844 L 254.304688 130.515625 L 248.8125 126.988281 Z M 277.4375 82.433594 " clip-rule="nonzero"/></clipPath><clipPath id="f3c3e6df8b"><path d="M 0.640625 0.320312 L 34.960938 0.320312 L 34.960938 48.558594 L 0.640625 48.558594 Z M 0.640625 0.320312 " clip-rule="nonzero"/></clipPath><clipPath id="27c0628464"><path d="M 29.4375 0.433594 L 34.929688 3.964844 L 6.304688 48.515625 L 0.8125 44.988281 Z M 29.4375 0.433594 " clip-rule="nonzero"/></clipPath><clipPath id="9a6ea8d103"><rect x="0" width="35" y="0" height="49"/></clipPath><clipPath id="6518b649b0"><path d="M 275.382812 103.152344 L 296.214844 103.152344 L 296.214844 123.988281 L 275.382812 123.988281 Z M 275.382812 103.152344 " clip-rule="nonzero"/></clipPath><clipPath id="04d2ce128a"><path d="M 296.214844 113.570312 C 296.214844 107.816406 291.550781 103.152344 285.800781 103.152344 C 280.046875 103.152344 275.382812 107.816406 275.382812 113.570312 C 275.382812 119.324219 280.046875 123.988281 285.800781 123.988281 C 291.550781 123.988281 296.214844 119.324219 296.214844 113.570312 Z M 296.214844 113.570312 " clip-rule="nonzero"/></clipPath><clipPath id="f89cd48a29"><path d="M 0.382812 0.152344 L 21.214844 0.152344 L 21.214844 20.988281 L 0.382812 20.988281 Z M 0.382812 0.152344 " clip-rule="nonzero"/></clipPath><clipPath id="f6ee820759"><path d="M 21.214844 10.570312 C 21.214844 4.816406 16.550781 0.152344 10.800781 0.152344 C 5.046875 0.152344 0.382812 4.816406 0.382812 10.570312 C 0.382812 16.324219 5.046875 20.988281 10.800781 20.988281 C 16.550781 20.988281 21.214844 16.324219 21.214844 10.570312 Z M 21.214844 10.570312 " clip-rule="nonzero"/></clipPath><clipPath id="ba85847654"><rect x="0" width="22" y="0" height="21"/></clipPath><clipPath id="614e5174ef"><path d="M 237.960938 84.34375 L 258.796875 84.34375 L 258.796875 105.179688 L 237.960938 105.179688 Z M 237.960938 84.34375 " clip-rule="nonzero"/></clipPath><clipPath id="e62a8258ed"><path d="M 258.796875 94.761719 C 258.796875 89.007812 254.132812 84.34375 248.378906 84.34375 C 242.625 84.34375 237.960938 89.007812 237.960938 94.761719 C 237.960938 100.515625 242.625 105.179688 248.378906 105.179688 C 254.132812 105.179688 258.796875 100.515625 258.796875 94.761719 Z M 258.796875 94.761719 " clip-rule="nonzero"/></clipPath><clipPath id="9bf3d4fad4"><path d="M 0.960938 0.34375 L 21.796875 0.34375 L 21.796875 21.179688 L 0.960938 21.179688 Z M 0.960938 0.34375 " clip-rule="nonzero"/></clipPath><clipPath id="3cfc272887"><path d="M 21.796875 10.761719 C 21.796875 5.007812 17.132812 0.34375 11.378906 0.34375 C 5.625 0.34375 0.960938 5.007812 0.960938 10.761719 C 0.960938 16.515625 5.625 21.179688 11.378906 21.179688 C 17.132812 21.179688 21.796875 16.515625 21.796875 10.761719 Z M 21.796875 10.761719 " clip-rule="nonzero"/></clipPath><clipPath id="7f771c4806"><rect x="0" width="22" y="0" height="22"/></clipPath><clipPath id="6d3bf3f736"><path d="M 237.492188 48.929688 L 258.328125 48.929688 L 258.328125 69.765625 L 237.492188 69.765625 Z M 237.492188 48.929688 " clip-rule="nonzero"/></clipPath><clipPath id="8729f9becf"><path d="M 258.328125 59.347656 C 258.328125 53.59375 253.664062 48.929688 247.910156 48.929688 C 242.15625 48.929688 237.492188 53.59375 237.492188 59.347656 C 237.492188 65.101562 242.15625 69.765625 247.910156 69.765625 C 253.664062 69.765625 258.328125 65.101562 258.328125 59.347656 Z M 258.328125 59.347656 " clip-rule="nonzero"/></clipPath><clipPath id="9b1fba1c5f"><path d="M 0.492188 0.929688 L 21.328125 0.929688 L 21.328125 21.765625 L 0.492188 21.765625 Z M 0.492188 0.929688 " clip-rule="nonzero"/></clipPath><clipPath id="c36bb64b35"><path d="M 21.328125 11.347656 C 21.328125 5.59375 16.664062 0.929688 10.910156 0.929688 C 5.15625 0.929688 0.492188 5.59375 0.492188 11.347656 C 0.492188 17.101562 5.15625 21.765625 10.910156 21.765625 C 16.664062 21.765625 21.328125 17.101562 21.328125 11.347656 Z M 21.328125 11.347656 " clip-rule="nonzero"/></clipPath><clipPath id="e1a3ffc1f4"><rect x="0" width="22" y="0" height="22"/></clipPath><clipPath id="5f30bb1070"><path d="M 237.492188 120.101562 L 258.328125 120.101562 L 258.328125 140.933594 L 237.492188 140.933594 Z M 237.492188 120.101562 " clip-rule="nonzero"/></clipPath><clipPath id="34c9f2c81b"><path d="M 258.328125 130.515625 C 258.328125 124.765625 253.664062 120.101562 247.910156 120.101562 C 242.15625 120.101562 237.492188 124.765625 237.492188 130.515625 C 237.492188 136.269531 242.15625 140.933594 247.910156 140.933594 C 253.664062 140.933594 258.328125 136.269531 258.328125 130.515625 Z M 258.328125 130.515625 " clip-rule="nonzero"/></clipPath><clipPath id="5549223e45"><path d="M 0.492188 0.101562 L 21.328125 0.101562 L 21.328125 20.933594 L 0.492188 20.933594 Z M 0.492188 0.101562 " clip-rule="nonzero"/></clipPath><clipPath id="282a048eb8"><path d="M 21.328125 10.515625 C 21.328125 4.765625 16.664062 0.101562 10.910156 0.101562 C 5.15625 0.101562 0.492188 4.765625 0.492188 10.515625 C 0.492188 16.269531 5.15625 20.933594 10.910156 20.933594 C 16.664062 20.933594 21.328125 16.269531 21.328125 10.515625 Z M 21.328125 10.515625 " clip-rule="nonzero"/></clipPath><clipPath id="193a8048da"><rect x="0" width="22" y="0" height="21"/></clipPath><clipPath id="add4b774d1"><path d="M 200.621094 65.539062 L 221.457031 65.539062 L 221.457031 86.371094 L 200.621094 86.371094 Z M 200.621094 65.539062 " clip-rule="nonzero"/></clipPath><clipPath id="0e966a03f1"><path d="M 221.457031 75.957031 C 221.457031 70.203125 216.792969 65.539062 211.039062 65.539062 C 205.285156 65.539062 200.621094 70.203125 200.621094 75.957031 C 200.621094 81.707031 205.285156 86.371094 211.039062 86.371094 C 216.792969 86.371094 221.457031 81.707031 221.457031 75.957031 Z M 221.457031 75.957031 " clip-rule="nonzero"/></clipPath><clipPath id="6599867106"><path d="M 0.621094 0.539062 L 21.457031 0.539062 L 21.457031 21.371094 L 0.621094 21.371094 Z M 0.621094 0.539062 " clip-rule="nonzero"/></clipPath><clipPath id="7a6254ecf4"><path d="M 21.457031 10.957031 C 21.457031 5.203125 16.792969 0.539062 11.039062 0.539062 C 5.285156 0.539062 0.621094 5.203125 0.621094 10.957031 C 0.621094 16.707031 5.285156 21.371094 11.039062 21.371094 C 16.792969 21.371094 21.457031 16.707031 21.457031 10.957031 Z M 21.457031 10.957031 " clip-rule="nonzero"/></clipPath><clipPath id="ccb8e7a7a6"><rect x="0" width="22" y="0" height="22"/></clipPath><clipPath id="3d3c74b1ee"><path d="M 200.621094 103.152344 L 221.457031 103.152344 L 221.457031 123.988281 L 200.621094 123.988281 Z M 200.621094 103.152344 " clip-rule="nonzero"/></clipPath><clipPath id="2c99fdc703"><path d="M 221.457031 113.570312 C 221.457031 107.816406 216.792969 103.152344 211.039062 103.152344 C 205.285156 103.152344 200.621094 107.816406 200.621094 113.570312 C 200.621094 119.324219 205.285156 123.988281 211.039062 123.988281 C 216.792969 123.988281 221.457031 119.324219 221.457031 113.570312 Z M 221.457031 113.570312 " clip-rule="nonzero"/></clipPath><clipPath id="40bb415d3b"><path d="M 0.621094 0.152344 L 21.457031 0.152344 L 21.457031 20.988281 L 0.621094 20.988281 Z M 0.621094 0.152344 " clip-rule="nonzero"/></clipPath><clipPath id="8a5a32d40d"><path d="M 21.457031 10.570312 C 21.457031 4.816406 16.792969 0.152344 11.039062 0.152344 C 5.285156 0.152344 0.621094 4.816406 0.621094 10.570312 C 0.621094 16.324219 5.285156 20.988281 11.039062 20.988281 C 16.792969 20.988281 21.457031 16.324219 21.457031 10.570312 Z M 21.457031 10.570312 " clip-rule="nonzero"/></clipPath><clipPath id="edcbc9a07e"><rect x="0" width="22" y="0" height="21"/></clipPath></defs><g clip-path="url(#75153321cb)"><g clip-path="url(#0166c79697)"><g transform="matrix(1, 0, 0, 1, 57, 11)"><g clip-path="url(#70ba89d006)"><g clip-path="url(#fa2a6d42f6)"><g clip-path="url(#5655bbc77f)"><path fill="#0a3210" d="M 0.238281 0.160156 L 260.761719 0.160156 L 260.761719 353.296875 L 0.238281 353.296875 Z M 0.238281 0.160156 " fill-opacity="1" fill-rule="nonzero"/></g></g></g></g></g></g><g clip-path="url(#b7fd958564)"><g clip-path="url(#b0dc384902)"><g transform="matrix(1, 0, 0, 1, 71, 24)"><g clip-path="url(#e053c26fdc)"><g clip-path="url(#eec67e467b)"><g clip-path="url(#c0f18b9c9f)"><path fill="#829182" d="M 0.00390625 0.0664062 L 232.996094 0.0664062 L 232.996094 324.988281 L 0.00390625 324.988281 Z M 0.00390625 0.0664062 " fill-opacity="1" fill-rule="nonzero"/></g></g></g></g></g></g><g clip-path="url(#fe282c45f9)"><g clip-path="url(#07736c0269)"><g transform="matrix(1, 0, 0, 1, 187, 17)"><g clip-path="url(#e26c0bd3ac)"><g clip-path="url(#bdee013293)"><g clip-path="url(#2e54d0adf4)"><path fill="#0a3210" d="M 0.5 0.613281 L 122.277344 0.613281 L 122.277344 196.121094 L 0.5 196.121094 Z M 0.5 0.613281 " fill-opacity="1" fill-rule="nonzero"/></g></g></g></g></g></g><g clip-path="url(#bfe56ee6d6)"><g transform="matrix(1, 0, 0, 1, 180, 17)"><g clip-path="url(#9bb372dfb6)"><g clip-path="url(#03b34a7f0f)"><path fill="#0a3210" d="M 0.617188 0.613281 L 14.382812 0.613281 L 14.382812 338.113281 L 0.617188 338.113281 Z M 0.617188 0.613281 " fill-opacity="1" fill-rule="nonzero"/></g></g></g></g><g clip-path="url(#1c720121e8)"><g clip-path="url(#49c8157647)"><g transform="matrix(1, 0, 0, 1, 65, 126)"><g clip-path="url(#dd3e2241c6)"><g clip-path="url(#fe89c3786b)"><g clip-path="url(#10612f059d)"><path fill="#0a3210" d="M 122.492188 167.050781 L 0.71875 167.050781 L 0.71875 1.035156 L 122.492188 1.035156 Z M 122.492188 167.050781 " fill-opacity="1" fill-rule="nonzero"/></g></g></g></g></g></g><g clip-path="url(#bcb63f85fd)"><g clip-path="url(#56dde1c791)"><g transform="matrix(1, 0, 0, 1, 71, 233)"><g clip-path="url(#1462f39ded)"><g clip-path="url(#0349ad9c36)"><g clip-path="url(#d111a7dc3d)"><path fill="#0a3210" d="M 116.496094 0.320312 L 116.496094 122.28125 L 0 122.28125 L 0 0.320312 Z M 116.496094 0.320312 " fill-opacity="1" fill-rule="nonzero"/></g></g></g></g></g></g><g clip-path="url(#e172bf0f25)"><g clip-path="url(#79cb96234c)"><g transform="matrix(1, 0, 0, 1, 122, 234)"><g clip-path="url(#a5cbf2e17d)"><g clip-path="url(#27d8cf72f5)"><g clip-path="url(#536c1da7de)"><path fill="#829182" d="M 8.648438 0.898438 L 8.648438 84.230469 L 0.566406 84.230469 L 0.566406 0.898438 Z M 8.648438 0.898438 " fill-opacity="1" fill-rule="nonzero"/></g></g></g></g></g></g><g clip-path="url(#5ff47975fe)"><g transform="matrix(1, 0, 0, 1, 122, 195)"><g clip-path="url(#21a6550b0c)"><g clip-path="url(#e549280d85)"><path fill="#829182" d="M 8.648438 0.722656 L 8.648438 84.054688 L 0.566406 84.054688 L 0.566406 0.722656 Z M 8.648438 0.722656 " fill-opacity="1" fill-rule="nonzero"/></g></g></g></g><g clip-path="url(#ce100f0459)"><g clip-path="url(#c070c9af6d)"><g transform="matrix(1, 0, 0, 1, 122, 169)"><g clip-path="url(#8211083595)"><g clip-path="url(#535dd6785d)"><g clip-path="url(#ce7aa4d54b)"><path fill="#829182" d="M 33.773438 6.785156 L 6.070312 32.570312 L 0.5625 26.65625 L 28.265625 0.871094 Z M 33.773438 6.785156 " fill-opacity="1" fill-rule="nonzero"/></g></g></g></g></g></g><g clip-path="url(#0cf77f5b49)"><g transform="matrix(1, 0, 0, 1, 147, 175)"><g clip-path="url(#a5fbb67814)"><g clip-path="url(#10b8913a85)"><path fill="#829182" d="M 8.769531 0.816406 L 8.769531 28.089844 L 0.6875 28.089844 L 0.6875 0.816406 Z M 8.769531 0.816406 " fill-opacity="1" fill-rule="nonzero"/></g></g></g></g><g clip-path="url(#2357442b02)"><g clip-path="url(#799404e533)"><g transform="matrix(1, 0, 0, 1, 122, 197)"><g clip-path="url(#767b8c157e)"><g clip-path="url(#0e68d64172)"><g clip-path="url(#107d5813a2)"><path fill="#829182" d="M 33.773438 6.214844 L 6.070312 32.003906 L 0.5625 26.085938 L 28.265625 0.300781 Z M 33.773438 6.214844 " fill-opacity="1" fill-rule="nonzero"/></g></g></g></g></g></g><g clip-path="url(#3205ccfbcb)"><g transform="matrix(1, 0, 0, 1, 99, 202)"><g clip-path="url(#b1c540f9ac)"><g clip-path="url(#7eef79e798)"><path fill="#829182" d="M 0.105469 28.234375 L 0.105469 0.964844 L 8.1875 0.964844 L 8.1875 28.234375 Z M 0.105469 28.234375 " fill-opacity="1" fill-rule="nonzero"/></g></g></g></g><g clip-path="url(#7b67f95bb4)"><g clip-path="url(#5429753b3a)"><g transform="matrix(1, 0, 0, 1, 99, 224)"><g clip-path="url(#99b6769ec4)"><g clip-path="url(#b233ee6cbc)"><g clip-path="url(#db7af2ed17)"><path fill="#829182" d="M 6.054688 0.734375 L 31.65625 28.613281 L 25.703125 34.078125 L 0.105469 6.199219 Z M 6.054688 0.734375 " fill-opacity="1" fill-rule="nonzero"/></g></g></g></g></g></g><g clip-path="url(#53a09d6edc)"><g clip-path="url(#4f470efc87)"><g transform="matrix(1, 0, 0, 1, 99, 197)"><g clip-path="url(#d32a932a7d)"><g clip-path="url(#c782bb2e45)"><g clip-path="url(#c15ccc3754)"><path fill="#829182" d="M 6.054688 0.304688 L 31.65625 28.183594 L 25.703125 33.648438 L 0.105469 5.769531 Z M 6.054688 0.304688 " fill-opacity="1" fill-rule="nonzero"/></g></g></g></g></g></g><g clip-path="url(#a8c12dde08)"><g clip-path="url(#6cacaf13fe)"><g clip-path="url(#389a0ed320)"><g transform="matrix(1, 0, 0, 1, 124, 179)"><g clip-path="url(#5aa962ce4c)"><g clip-path="url(#a4b96ccdb8)"><g clip-path="url(#2f7e4fd78e)"><g clip-path="url(#fd92c335f2)"><path fill="#829182" d="M 35.851562 10.652344 L 4.277344 40.042969 L -5.507812 29.53125 L 26.066406 0.144531 Z M 35.851562 10.652344 " fill-opacity="1" fill-rule="nonzero"/></g></g></g></g></g></g></g></g><g clip-path="url(#8593ab7b03)"><g clip-path="url(#b1221b503b)"><g clip-path="url(#de90e0c0af)"><g transform="matrix(1, 0, 0, 1, 101, 209)"><g clip-path="url(#53d1ceaf29)"><g clip-path="url(#844389e7e8)"><g clip-path="url(#d5218de6c4)"><g clip-path="url(#e0a72e16d3)"><path fill="#829182" d="M 31.203125 9.601562 L 22.390625 35.949219 L -3.449219 27.304688 L 5.363281 0.957031 Z M 31.203125 9.601562 " fill-opacity="1" fill-rule="nonzero"/></g></g></g></g></g></g></g></g><g clip-path="url(#65e71fc49f)"><g clip-path="url(#c269bef0f7)"><g transform="matrix(1, 0, 0, 1, 275, 65)"><g clip-path="url(#bc9facdd2f)"><g clip-path="url(#283fee90f9)"><g clip-path="url(#a61bdddafa)"><path fill="#829182" d="M 21.214844 0.539062 L 21.214844 21.371094 L 0.382812 21.371094 L 0.382812 0.539062 Z M 21.214844 0.539062 " fill-opacity="1" fill-rule="nonzero"/></g></g></g></g></g></g><g clip-path="url(#3b5cb07061)"><g clip-path="url(#6279d62448)"><g transform="matrix(1, 0, 0, 1, 203, 70)"><g clip-path="url(#3fd59301cc)"><g clip-path="url(#3f7ab0c872)"><g clip-path="url(#ef7ff4696d)"><path fill="#829182" d="M 89.878906 43.589844 L 86.929688 49.414062 L 0.96875 5.929688 L 3.917969 0.101562 Z M 89.878906 43.589844 " fill-opacity="1" fill-rule="nonzero"/></g></g></g></g></g></g><g clip-path="url(#5f355abd58)"><g clip-path="url(#981d614ce8)"><g transform="matrix(1, 0, 0, 1, 204, 69)"><g clip-path="url(#9743bbe7d1)"><g clip-path="url(#b292ff6f34)"><g clip-path="url(#a51e884bbb)"><path fill="#829182" d="M 3.285156 50.753906 L 0.289062 44.953125 L 85.890625 0.757812 L 88.886719 6.5625 Z M 3.285156 50.753906 " fill-opacity="1" fill-rule="nonzero"/></g></g></g></g></g></g><g clip-path="url(#1281e705d5)"><g clip-path="url(#9430e7550f)"><g transform="matrix(1, 0, 0, 1, 242, 108)"><g clip-path="url(#d59c9aadd5)"><g clip-path="url(#5f19d1aef6)"><g clip-path="url(#205857a1ff)"><path fill="#829182" d="M 3.511719 30.617188 L 0.515625 24.8125 L 47.566406 0.523438 L 50.5625 6.324219 Z M 3.511719 30.617188 " fill-opacity="1" fill-rule="nonzero"/></g></g></g></g></g></g><g clip-path="url(#906dda26e7)"><g clip-path="url(#49d5625e3f)"><g transform="matrix(1, 0, 0, 1, 204, 50)"><g clip-path="url(#f11a06ebd4)"><g clip-path="url(#620bb4a3e6)"><g clip-path="url(#198d6c76b6)"><path fill="#829182" d="M 3.28125 31 L 0.285156 25.199219 L 47.335938 0.910156 L 50.332031 6.710938 Z M 3.28125 31 " fill-opacity="1" fill-rule="nonzero"/></g></g></g></g></g></g><g clip-path="url(#91de85a808)"><g clip-path="url(#4b3b645052)"><g transform="matrix(1, 0, 0, 1, 242, 51)"><g clip-path="url(#f8776a64fb)"><g clip-path="url(#fc07992424)"><g clip-path="url(#9276827e52)"><path fill="#829182" d="M 50.570312 24.195312 L 47.585938 30.003906 L 0.484375 5.816406 L 3.464844 0.0078125 Z M 50.570312 24.195312 " fill-opacity="1" fill-rule="nonzero"/></g></g></g></g></g></g><g clip-path="url(#1ee21fabee)"><g clip-path="url(#c3d3d833cc)"><g transform="matrix(1, 0, 0, 1, 204, 108)"><g clip-path="url(#f602e87c5a)"><g clip-path="url(#ec33b8ac36)"><g clip-path="url(#9512426726)"><path fill="#829182" d="M 50.902344 24.808594 L 47.917969 30.617188 L 0.816406 6.433594 L 3.796875 0.625 Z M 50.902344 24.808594 " fill-opacity="1" fill-rule="nonzero"/></g></g></g></g></g></g><g clip-path="url(#1b6b203858)"><g clip-path="url(#00bf713057)"><g transform="matrix(1, 0, 0, 1, 251, 62)"><g clip-path="url(#8de18b6cf5)"><g clip-path="url(#7cf4340904)"><g clip-path="url(#4f7aeae30d)"><path fill="#829182" d="M 34.652344 45.023438 L 29.191406 48.605469 L 0.140625 4.335938 L 5.601562 0.753906 Z M 34.652344 45.023438 " fill-opacity="1" fill-rule="nonzero"/></g></g></g></g></g></g><g clip-path="url(#455bb25361)"><g clip-path="url(#7886302f54)"><g transform="matrix(1, 0, 0, 1, 213, 81)"><g clip-path="url(#b0abf37c00)"><g clip-path="url(#7d18543757)"><g clip-path="url(#f664d62e68)"><path fill="#829182" d="M 34.917969 45.207031 L 29.460938 48.789062 L 0.410156 4.523438 L 5.867188 0.941406 Z M 34.917969 45.207031 " fill-opacity="1" fill-rule="nonzero"/></g></g></g></g></g></g><g clip-path="url(#e519a492d2)"><g clip-path="url(#06955d8b9a)"><g transform="matrix(1, 0, 0, 1, 212, 60)"><g clip-path="url(#5b0a7813bf)"><g clip-path="url(#60ae8ba62e)"><g clip-path="url(#b905f84db4)"><path fill="#829182" d="M 29.421875 0.773438 L 34.914062 4.300781 L 6.292969 48.847656 L 0.800781 45.320312 Z M 29.421875 0.773438 " fill-opacity="1" fill-rule="nonzero"/></g></g></g></g></g></g><g clip-path="url(#4df48cdf7a)"><g clip-path="url(#a6a5224f1a)"><g transform="matrix(1, 0, 0, 1, 248, 82)"><g clip-path="url(#9a6ea8d103)"><g clip-path="url(#f3c3e6df8b)"><g clip-path="url(#27c0628464)"><path fill="#829182" d="M 29.4375 0.433594 L 34.929688 3.964844 L 6.308594 48.511719 L 0.816406 44.980469 Z M 29.4375 0.433594 " fill-opacity="1" fill-rule="nonzero"/></g></g></g></g></g></g><g clip-path="url(#6518b649b0)"><g clip-path="url(#04d2ce128a)"><g transform="matrix(1, 0, 0, 1, 275, 103)"><g clip-path="url(#ba85847654)"><g clip-path="url(#f89cd48a29)"><g clip-path="url(#f6ee820759)"><path fill="#829182" d="M 21.214844 0.152344 L 21.214844 20.988281 L 0.382812 20.988281 L 0.382812 0.152344 Z M 21.214844 0.152344 " fill-opacity="1" fill-rule="nonzero"/></g></g></g></g></g></g><g clip-path="url(#614e5174ef)"><g clip-path="url(#e62a8258ed)"><g transform="matrix(1, 0, 0, 1, 237, 84)"><g clip-path="url(#7f771c4806)"><g clip-path="url(#9bf3d4fad4)"><g clip-path="url(#3cfc272887)"><path fill="#829182" d="M 21.796875 0.34375 L 21.796875 21.179688 L 0.960938 21.179688 L 0.960938 0.34375 Z M 21.796875 0.34375 " fill-opacity="1" fill-rule="nonzero"/></g></g></g></g></g></g><g clip-path="url(#6d3bf3f736)"><g clip-path="url(#8729f9becf)"><g transform="matrix(1, 0, 0, 1, 237, 48)"><g clip-path="url(#e1a3ffc1f4)"><g clip-path="url(#9b1fba1c5f)"><g clip-path="url(#c36bb64b35)"><path fill="#829182" d="M 21.328125 0.929688 L 21.328125 21.765625 L 0.492188 21.765625 L 0.492188 0.929688 Z M 21.328125 0.929688 " fill-opacity="1" fill-rule="nonzero"/></g></g></g></g></g></g><g clip-path="url(#5f30bb1070)"><g clip-path="url(#34c9f2c81b)"><g transform="matrix(1, 0, 0, 1, 237, 120)"><g clip-path="url(#193a8048da)"><g clip-path="url(#5549223e45)"><g clip-path="url(#282a048eb8)"><path fill="#829182" d="M 21.328125 0.101562 L 21.328125 20.933594 L 0.492188 20.933594 L 0.492188 0.101562 Z M 21.328125 0.101562 " fill-opacity="1" fill-rule="nonzero"/></g></g></g></g></g></g><g clip-path="url(#add4b774d1)"><g clip-path="url(#0e966a03f1)"><g transform="matrix(1, 0, 0, 1, 200, 65)"><g clip-path="url(#ccb8e7a7a6)"><g clip-path="url(#6599867106)"><g clip-path="url(#7a6254ecf4)"><path fill="#829182" d="M 21.457031 0.539062 L 21.457031 21.371094 L 0.621094 21.371094 L 0.621094 0.539062 Z M 21.457031 0.539062 " fill-opacity="1" fill-rule="nonzero"/></g></g></g></g></g></g><g clip-path="url(#3d3c74b1ee)"><g clip-path="url(#2c99fdc703)"><g transform="matrix(1, 0, 0, 1, 200, 103)"><g clip-path="url(#edcbc9a07e)"><g clip-path="url(#40bb415d3b)"><g clip-path="url(#8a5a32d40d)"><path fill="#829182" d="M 21.457031 0.152344 L 21.457031 20.988281 L 0.621094 20.988281 L 0.621094 0.152344 Z M 21.457031 0.152344 " fill-opacity="1" fill-rule="nonzero"/></g></g></g></g></g></g></svg>